<?xml version="1.0" encoding="utf-8"?>
<!-- Generator: Adobe Illustrator 19.1.0, SVG Export Plug-In . SVG Version: 6.00 Build 0)  -->
<!DOCTYPE svg PUBLIC "-//W3C//DTD SVG 1.1//EN" "http://www.w3.org/Graphics/SVG/1.1/DTD/svg11.dtd">
<svg version="1.1" id="bitbucket" xmlns="http://www.w3.org/2000/svg" xmlns:xlink="http://www.w3.org/1999/xlink" x="0px" y="0px"
	 width="863.566px" height="267.72px" viewBox="0 0 863.566 267.72" style="enable-background:new 0 0 863.566 267.72;"
	 xml:space="preserve">
<style type="text/css">
	.st0{fill:#205081;}
</style>
<g>
	<g>
		<g>
			<g>
				<path class="st0" d="M432.851,136.489c-9.223,0-18.545,2.275-24.859,4.641v-34.558c0-1.738-1.414-3.146-3.15-3.146h-18.628
					c-1.736,0-3.13,1.408-3.13,3.146v119.01c0,1.51,1.086,2.826,2.577,3.092c11.492,2.096,25.048,2.83,33.187,2.83
					c34.984,0,42.139-14.87,42.139-37.211v-26.049C460.984,147.162,451.519,136.489,432.851,136.489z M419.926,209.871
					c-4.717,0-8.624-0.182-11.935-0.571v-46.559c5.13-2.299,12.346-4.616,18.132-4.616c7.058,0,9.938,2.766,9.938,9.568v27.313
					C436.061,204.862,433.568,209.871,419.926,209.871z"/>
				<path class="st0" d="M546.674,138.31H528.07c-1.736,0-3.146,1.413-3.146,3.127v58.95c-6.71,3.401-16.155,6.929-21.777,6.929
					c-4.193,0-5.742-1.549-5.742-5.746v-60.133c0-1.714-1.432-3.127-3.19-3.127h-18.583c-1.762,0-3.154,1.413-3.154,3.127v62.509
					c0,18.283,7.195,27.559,21.369,27.559c9.872,0,23.308-3.392,34.652-8.726l1.372,4.645c0.409,1.344,1.617,2.265,3.028,2.265
					l13.775-0.004c1.741,0,3.153-1.412,3.153-3.147v-85.1C549.827,139.723,548.415,138.31,546.674,138.31z"/>
				<path class="st0" d="M621.62,210.423c-0.121-0.877-0.633-1.647-1.33-2.147c-0.732-0.489-1.636-0.653-2.493-0.46
					c-5.337,1.216-10.939,1.874-16.195,1.874c-11.798,0-15.213-3.005-15.213-13.394v-24.6c0-10.397,3.415-13.402,15.213-13.402
					c2.806,0,9.794,0.403,16.195,1.869c0.857,0.196,1.761,0.034,2.493-0.471c0.719-0.484,1.227-1.261,1.33-2.142l2.212-14.727
					c0.22-1.552-0.694-3.03-2.212-3.474c-7.175-2.112-15.583-2.861-20.549-2.861c-28.132,0-39.604,10.246-39.604,35.392v24.231
					c0,25.137,11.472,35.392,39.604,35.392c6.826,0,14.7-1.096,20.549-2.855c1.518-0.449,2.432-1.938,2.212-3.483L621.62,210.423z"
					/>
				<path class="st0" d="M749.865,136.489c-24.967,0-38.149,12.434-38.149,35.941v23.499c0,24.265,12.364,35.574,38.889,35.574
					c10.792,0,22.304-1.892,31.566-5.171c1.472-0.53,2.353-2.075,2.045-3.621l-2.761-13.316c-0.184-0.855-0.716-1.61-1.452-2.05
					c-0.755-0.459-1.655-0.58-2.491-0.337c-8.567,2.414-16.687,3.597-24.907,3.597c-13.556,0-15.97-4.393-15.97-13.587v-3.217
					h46.213c1.755,0,3.148-1.393,3.148-3.156v-17.13C785.995,148.248,774.524,136.489,749.865,136.489z M736.635,173.262v-3.019
					c0-8.77,4.279-12.857,13.419-12.857c10.1,0,12.117,4.928,12.117,12.857v3.019H736.635z"/>
				<path class="st0" d="M302.116,138.269H283.51c-1.739,0-3.154,1.418-3.154,3.148v85.085c0,1.745,1.415,3.152,3.154,3.152h18.605
					c1.779,0,3.168-1.407,3.168-3.152v-85.085C305.284,139.687,303.895,138.269,302.116,138.269z"/>
				<path class="st0" d="M302.116,103.416H283.51c-1.739,0-3.154,1.428-3.154,3.157v16.029c0,1.763,1.415,3.159,3.154,3.159h18.605
					c1.779,0,3.168-1.396,3.168-3.159v-16.029C305.284,104.844,303.895,103.416,302.116,103.416z"/>
				<g>
					<path class="st0" d="M255.251,164.776c7.711-4.242,11.059-10.188,11.059-19.331v-12.513c0-18.323-10.995-27.217-33.572-27.217
						h-45.939c-1.721,0-3.133,1.408-3.133,3.145v117.642c0,1.745,1.412,3.152,3.133,3.152h49.213
						c21.917,0,34.493-10.643,34.493-29.211v-12.922C270.504,176.444,264.881,168.172,255.251,164.776z M209.308,127.347h20.691
						c9.366,0,10.676,4.087,10.676,8.463v10.721c0,6.972-3.255,9.95-10.86,9.95h-4.474c-1.762,0-3.174,1.417-3.174,3.157v14.781
						c0,1.751,1.412,3.161,3.174,3.161h8.093c8.119,0,11.413,3.14,11.413,10.849v9.097c0,7.843-3.374,10.488-13.415,10.488h-22.122
						V127.347z"/>
				</g>
				<path class="st0" d="M372.022,211.568c-0.123-0.886-0.612-1.666-1.347-2.166c-0.741-0.489-1.659-0.652-2.518-0.433
					c-3.291,0.82-6.441,1.268-8.872,1.268c-4.602,0-6.646-2.003-6.646-6.476v-45.085h18.074c1.74,0,3.148-1.408,3.148-3.151v-14.069
					c0-1.734-1.408-3.148-3.148-3.148h-18.074v-21.676c0-0.917-0.41-1.779-1.083-2.372c-0.694-0.606-1.617-0.88-2.52-0.749
					l-18.605,2.59c-1.554,0.225-2.713,1.556-2.713,3.129v19.078h-10.145c-1.737,0-3.152,1.413-3.152,3.148v14.069
					c0,1.743,1.415,3.151,3.152,3.151h10.145v48.007c0,16.472,8.646,24.835,25.738,24.835c4.868,0,13.128-1.127,18.526-2.999
					c1.451-0.499,2.311-1.938,2.085-3.454L372.022,211.568z"/>
				<path class="st0" d="M847.374,211.564c-0.122-0.886-0.632-1.666-1.373-2.168c-0.733-0.487-1.657-0.652-2.493-0.427
					c-3.314,0.816-6.441,1.268-8.893,1.268c-4.582,0-6.665-2.009-6.665-6.481v-45.085h18.096c1.757,0,3.144-1.417,3.144-3.146
					v-14.069c0-1.734-1.387-3.149-3.144-3.149H827.95v-21.68c0-0.919-0.368-1.78-1.066-2.371c-0.695-0.603-1.613-0.877-2.514-0.745
					l-18.607,2.59c-1.553,0.22-2.722,1.551-2.722,3.113v19.093h-10.138c-1.722,0-3.147,1.414-3.147,3.149v14.069
					c0,1.729,1.426,3.146,3.147,3.146h10.138v48.013c0,16.466,8.671,24.829,25.746,24.829c4.887,0,13.125-1.126,18.524-2.997
					c1.433-0.501,2.326-1.934,2.104-3.454L847.374,211.564z"/>
			</g>
		</g>
	</g>
</g>
<path class="st0" d="M708.825,224.391l-24.88-41.074l24.001-40.449c0.578-0.975,0.589-2.184,0.028-3.166
	c-0.561-0.984-1.605-1.592-2.737-1.592h-20.553c-1.126,0-2.166,0.602-2.729,1.576l-22.832,39.584v-72.678
	c0-1.741-1.411-3.15-3.15-3.15h-18.606c-1.739,0-3.15,1.409-3.15,3.15v119.911c0,1.74,1.411,3.15,3.15,3.15h18.606
	c1.739,0,3.15-1.41,3.15-3.15v-39.244l24.295,40.654c0.568,0.951,1.596,1.535,2.704,1.535h20.173c0.006,0,0.014,0,0.02,0
	c1.74,0,3.15-1.412,3.15-3.15C709.466,225.58,709.228,224.92,708.825,224.391z"/>
<path class="st0" d="M89.219,94.963v0.002V94.963c-33.675,0-61.172,9.053-61.172,20.294c0,2.961,7.343,45.415,10.256,62.251
	c1.306,7.551,20.818,18.621,50.9,18.621l0.031-0.09v0.09c30.081,0,49.593-11.07,50.899-18.621
	c2.913-16.836,10.256-59.29,10.256-62.251C150.39,104.017,122.894,94.963,89.219,94.963z M89.219,182.49
	c-10.739,0-19.445-8.707-19.445-19.445c0-10.74,8.706-19.445,19.445-19.445c10.739,0,19.445,8.705,19.445,19.445
	C108.664,173.783,99.958,182.49,89.219,182.49z M89.208,121.53c-21.636-0.035-39.169-3.794-39.162-8.398
	c0.007-4.604,17.554-8.307,39.19-8.272c21.636,0.034,39.169,3.793,39.162,8.398C128.39,117.863,110.844,121.564,89.208,121.53z"/>
<path class="st0" d="M133.185,194.382c-0.93,0-1.675,0.658-1.675,0.658s-15.064,11.929-42.29,11.93
	c-27.227-0.001-42.29-11.93-42.29-11.93s-0.746-0.658-1.675-0.658c-1.111,0-2.164,0.746-2.164,2.393
	c0,0.174,0.017,0.348,0.049,0.518c2.338,12.514,4.046,21.393,4.346,22.744c2.041,9.205,20.048,16.151,41.733,16.152l0,0h0.001h0.001
	l0,0c21.686-0.001,39.692-6.947,41.733-16.152c0.3-1.352,2.008-10.23,4.346-22.744c0.032-0.17,0.049-0.344,0.049-0.518
	C135.349,195.128,134.295,194.382,133.185,194.382z"/>
<circle class="st0" cx="89.2" cy="163.039" r="9.745"/>
</svg>
