<?xml version="1.0" encoding="UTF-8" standalone="no"?>
<!DOCTYPE svg PUBLIC "-//W3C//DTD SVG 1.1//EN" "http://www.w3.org/Graphics/SVG/1.1/DTD/svg11.dtd">
<svg width="100%" height="100%" viewBox="0 0 2002 542" version="1.1" xmlns="http://www.w3.org/2000/svg" xmlns:xlink="http://www.w3.org/1999/xlink" xml:space="preserve" style="fill-rule:evenodd;clip-rule:evenodd;stroke-linejoin:round;stroke-miterlimit:1.41421;">
    <g transform="matrix(1,0,0,1,-199.492,-929.431)">
        <g id="Layer-1" transform="matrix(4.16667,0,0,4.16667,0,0)">
            <path d="M140.375,278.65L100.019,278.65C98.978,278.65 98.133,279.495 98.133,280.537L98.133,300.267C98.133,301.308 98.978,302.156 100.019,302.156L115.762,302.156L115.762,326.67C115.762,326.67 112.227,327.875 102.454,327.875C90.924,327.875 74.817,323.662 74.817,288.243C74.817,252.818 91.589,248.157 107.335,248.157C120.965,248.157 126.837,250.556 130.573,251.713C131.747,252.072 132.833,250.903 132.833,249.862L137.335,230.798C137.335,230.31 137.17,229.723 136.614,229.325C135.097,228.242 125.84,223.063 102.454,223.063C75.513,223.063 47.878,234.525 47.878,289.625C47.878,344.726 79.518,352.937 106.18,352.937C128.256,352.937 141.648,343.504 141.648,343.504C142.2,343.199 142.26,342.427 142.26,342.074L142.26,280.537C142.26,279.495 141.416,278.65 140.375,278.65" style="fill:rgb(14,13,13);fill-rule:nonzero;"/>
            <path d="M348.353,229.665C348.353,228.615 347.521,227.768 346.48,227.768L323.757,227.768C322.719,227.768 321.875,228.615 321.875,229.665C321.875,229.67 321.881,273.578 321.881,273.578L286.462,273.578L286.462,229.665C286.462,228.615 285.626,227.768 284.587,227.768L261.866,227.768C260.832,227.768 259.989,228.615 259.989,229.665L259.989,348.568C259.989,349.617 260.832,350.471 261.866,350.471L284.587,350.471C285.626,350.471 286.462,349.617 286.462,348.568L286.462,297.709L321.881,297.709C321.881,297.709 321.82,348.564 321.82,348.568C321.82,349.617 322.663,350.471 323.702,350.471L346.478,350.471C347.519,350.471 348.351,349.617 348.353,348.568L348.353,229.665Z" style="fill:rgb(14,13,13);fill-rule:nonzero;"/>
            <path d="M183.254,245.268C183.254,237.086 176.694,230.475 168.601,230.475C160.516,230.475 153.951,237.086 153.951,245.268C153.951,253.442 160.516,260.072 168.601,260.072C176.694,260.072 183.254,253.442 183.254,245.268" style="fill:rgb(14,13,13);fill-rule:nonzero;"/>
            <path d="M181.629,323.486L181.629,268.6C181.629,267.558 180.788,266.706 179.749,266.706L157.098,266.706C156.059,266.706 155.129,267.778 155.129,268.819L155.129,347.455C155.129,349.765 156.569,350.453 158.433,350.453L178.841,350.453C181.08,350.453 181.629,349.353 181.629,347.418L181.629,323.486Z" style="fill:rgb(14,13,13);fill-rule:nonzero;"/>
            <path d="M434.71,266.885L412.161,266.885C411.127,266.885 410.285,267.738 410.285,268.786L410.285,327.088C410.285,327.088 404.557,331.28 396.426,331.28C388.296,331.28 386.138,327.59 386.138,319.629L386.138,268.786C386.138,267.738 385.298,266.885 384.263,266.885L361.378,266.885C360.345,266.885 359.499,267.738 359.499,268.786L359.499,323.479C359.499,347.125 372.678,352.91 390.808,352.91C405.681,352.91 417.673,344.694 417.673,344.694C417.673,344.694 418.244,349.024 418.502,349.537C418.761,350.049 419.434,350.567 420.161,350.567L434.72,350.502C435.753,350.502 436.599,349.649 436.599,348.604L436.592,268.786C436.592,267.738 435.749,266.885 434.71,266.885" style="fill:rgb(14,13,13);fill-rule:nonzero;"/>
            <path d="M487.445,331.207C479.624,330.969 474.319,327.42 474.319,327.42L474.319,289.766C474.319,289.766 479.552,286.558 485.973,285.984C494.093,285.257 501.918,287.71 501.918,307.08C501.918,327.506 498.386,331.537 487.445,331.207M496.339,264.214C483.532,264.214 474.821,269.928 474.821,269.928L474.821,229.665C474.821,228.615 473.982,227.768 472.946,227.768L450.159,227.768C449.123,227.768 448.281,228.615 448.281,229.665L448.281,348.568C448.281,349.617 449.123,350.471 450.162,350.471L465.971,350.471C466.683,350.471 467.222,350.103 467.621,349.461C468.013,348.822 468.581,343.978 468.581,343.978C468.581,343.978 477.898,352.809 495.538,352.809C516.246,352.809 528.122,342.305 528.122,305.654C528.122,269.003 509.155,264.214 496.339,264.214" style="fill:rgb(14,13,13);fill-rule:nonzero;"/>
            <path d="M246.935,266.695L229.891,266.695C229.891,266.695 229.866,244.182 229.866,244.177C229.866,243.324 229.426,242.899 228.44,242.899L205.212,242.899C204.309,242.899 203.825,243.296 203.825,244.164L203.825,267.433C203.825,267.433 192.184,270.243 191.397,270.47C190.615,270.698 190.038,271.421 190.038,272.283L190.038,286.905C190.038,287.957 190.877,288.805 191.915,288.805L203.825,288.805L203.825,323.984C203.825,350.113 222.154,352.679 234.521,352.679C240.171,352.679 246.932,350.865 248.047,350.453C248.723,350.205 249.116,349.506 249.116,348.748L249.134,332.662C249.134,331.613 248.248,330.763 247.249,330.763C246.256,330.763 243.716,331.168 241.099,331.168C232.728,331.168 229.891,327.275 229.891,322.236C229.891,317.201 229.89,288.805 229.89,288.805L246.935,288.805C247.974,288.805 248.817,287.957 248.817,286.905L248.817,268.59C248.817,267.54 247.974,266.695 246.935,266.695" style="fill:rgb(14,13,13);fill-rule:nonzero;"/>
        </g>
    </g>
</svg>
