<?xml version="1.0" encoding="UTF-8" standalone="no"?>
<svg
   xmlns:dc="http://purl.org/dc/elements/1.1/"
   xmlns:cc="http://creativecommons.org/ns#"
   xmlns:rdf="http://www.w3.org/1999/02/22-rdf-syntax-ns#"
   xmlns:svg="http://www.w3.org/2000/svg"
   xmlns="http://www.w3.org/2000/svg"
   xmlns:sodipodi="http://sodipodi.sourceforge.net/DTD/sodipodi-0.dtd"
   xmlns:inkscape="http://www.inkscape.org/namespaces/inkscape"
   viewBox="0 0 272.96 114.01"
   version="1.1"
   id="svg10"
   sodipodi:docname="gitlogo.svg"
   inkscape:version="0.92.0 r15299">
  <metadata
     id="metadata16">
    <rdf:RDF>
      <cc:Work
         rdf:about="">
        <dc:format>image/svg+xml</dc:format>
        <dc:type
           rdf:resource="http://purl.org/dc/dcmitype/StillImage" />
        <dc:title />
      </cc:Work>
    </rdf:RDF>
  </metadata>
  <defs
     id="defs14" />
  <sodipodi:namedview
     pagecolor="#ffffff"
     bordercolor="#666666"
     borderopacity="1"
     objecttolerance="10"
     gridtolerance="10"
     guidetolerance="10"
     inkscape:pageopacity="0"
     inkscape:pageshadow="2"
     inkscape:window-width="1070"
     inkscape:window-height="735"
     id="namedview12"
     showgrid="false"
     inkscape:zoom="1.0807445"
     inkscape:cx="115.66102"
     inkscape:cy="55.154427"
     inkscape:window-x="2350"
     inkscape:window-y="328"
     inkscape:window-maximized="0"
     inkscape:current-layer="svg10" />
  <path
     fill="#f05133"
     d="M111.78,51.977,62.035,2.2381c-2.8622-2.8648-7.5082-2.8648-10.374,0l-10.329,10.33,13.102,13.102c3.0459-1.0284,6.5371-0.33888,8.9639,2.0884,2.4394,2.4424,3.124,5.9634,2.0698,9.0195l12.628,12.628c3.0551-1.0528,6.58-0.37262,9.0195,2.0712,3.4106,3.4096,3.4106,8.9345,0,12.345-3.4111,3.4116-8.936,3.4116-12.349,0-2.5645-2.5665-3.1988-6.3345-1.8999-9.4942l-11.777-11.777-0.001,30.991c0.8315,0.41162,1.6162,0.961,2.3091,1.6509,3.4096,3.4092,3.4096,8.9331,0,12.348-3.4106,3.4091-8.938,3.4091-12.345,0-3.4101-3.4146-3.4101-8.9385,0-12.348,0.84275-0.84125,1.8179-1.478,2.8584-1.9048v-31.279c-1.041-0.425-2.015-1.057-2.859-1.905-2.583-2.581-3.2051-6.372-1.8804-9.5439l-12.916-12.918-34.106,34.105c-2.8657,2.867-2.8657,7.513,0,10.378l49.742,49.739c2.8638,2.8648,7.5082,2.8648,10.376,0l49.512-49.504c2.8648-2.8662,2.8648-7.5136,0-10.379"
     id="path8" />
  <text
     xml:space="preserve"
     style="font-style:normal;font-variant:normal;font-weight:normal;font-stretch:normal;font-size:46.82492828px;line-height:27.43648148px;font-family:'Helvetica Rounded LT Std';-inkscape-font-specification:'Helvetica Rounded LT Std';text-align:start;letter-spacing:0px;word-spacing:0px;writing-mode:lr-tb;text-anchor:start;fill:#999999;fill-opacity:1;stroke:none;stroke-width:1.0974592px;stroke-linecap:butt;stroke-linejoin:miter;stroke-opacity:1;"
     x="128.30931"
     y="69.483566"
     id="text20"
     transform="scale(0.9595033,1.0422059)"><tspan
       sodipodi:role="line"
       id="tspan18"
       x="128.30931"
       y="69.483566"
       style="fill:#999999;stroke-width:1.0974592px;font-family: 'HelveticaNeue-Light', 'Helvetica Neue Light', 'Helvetica Neue', Helvetica, Arial, 'Lucida Grande', sans-serif;font-weight: 300">Others</tspan></text>
</svg>
